<?xml version="1.0" encoding="UTF-8" standalone="no"?><!DOCTYPE svg PUBLIC "-//W3C//DTD SVG 1.1//EN" "http://www.w3.org/Graphics/SVG/1.1/DTD/svg11.dtd"><svg width="100%" height="100%" viewBox="0 0 3698 864" version="1.1" xmlns="http://www.w3.org/2000/svg" xmlns:xlink="http://www.w3.org/1999/xlink" xml:space="preserve" xmlns:serif="http://www.serif.com/" style="fill-rule:evenodd;clip-rule:evenodd;stroke-linejoin:round;stroke-miterlimit:1.5;"><g id="Line"><path d="M431.866,792.511l0,-107.823l3265.304,-0l-371.439,107.823l-2893.865,0Z" style="fill:#fff;stroke:#fff;stroke-width:0.42px;"/></g><g id="Mountains"><path d="M784.883,431.866c0,194.967 -158.05,353.017 -353.017,353.017c-194.962,0 -353.017,-158.05 -353.017,-353.017c0,-194.967 158.054,-353.017 353.017,-353.017c194.967,0 353.017,158.05 353.017,353.017" style="fill:#fff;fill-rule:nonzero;"/><path d="M142.728,638.64c-5.677,-10.895 27.347,-12.046 31.709,-18.784c4.047,-6.251 -7.801,-18.035 -5.536,-21.643c2.265,-3.607 13.551,-3.092 19.126,0c8.995,9.011 34.421,12.139 47.465,13.634c10.316,1.183 9.733,2.041 30.8,-4.662c3.175,6.822 37.389,22.07 51.57,26.623c17.572,9.41 71.176,13.32 103.852,11.94c28.713,5.019 53.331,6.801 80.128,8.772c27.179,1.999 57.982,2.483 82.946,3.221c22.274,0.659 44.736,4.028 66.84,1.208c22.616,-2.886 69.793,-28.051 68.854,-18.522c-0.94,9.529 -52.009,56.64 -74.491,75.699c-18.233,15.457 -38.34,29.446 -60.398,38.655c-27.447,11.459 -68.32,26.168 -104.287,30.102c-38.655,4.228 -86.166,4.887 -127.641,-4.735c-41.876,-9.715 -88.458,-29.968 -123.614,-53.553c-34.309,-23.016 -78.054,-70.166 -87.323,-87.955Z" style="stroke:#000;stroke-width:1px;"/><g><path d="M79.618,489.251c3.687,2.357 11.06,7.07 17.689,6.69c10.053,-8.062 11.669,-17.777 17.395,-26.736c9.059,-14.173 25.415,-39.46 36.958,-58.304c11.069,-18.071 21.737,-36.388 32.298,-54.761c12.684,-22.065 30.333,-58.036 43.809,-77.631c10.289,-14.963 26.36,-35.433 37.044,-39.943c9.203,-3.885 19.933,6.344 27.058,12.885c9.825,9.019 14.358,20.368 21.904,30.279c8.053,10.576 15.202,24.569 26.414,33.179c12.724,9.771 37.205,13.202 49.929,25.448c12.724,12.246 19.484,31.122 26.414,48.027c9.288,22.656 23.515,70.143 29.313,87.909c2.014,6.169 4.322,14.512 5.476,18.683" style="fill:none;stroke:#000;stroke-width:6.25px;"/><path d="M96.159,495.963c7.484,7.896 22.452,23.688 33.018,36.114c10.939,12.864 22.012,29.461 32.615,41.071c9.48,10.38 17.679,20.454 31.004,28.588c13.098,7.995 34.959,11.418 52.748,9.664c19.73,-1.946 45.369,-10.448 65.632,-21.341c22.347,-12.012 45.094,-35.052 68.451,-50.734c23.187,-15.568 51.358,-34.369 71.692,-43.361c15.674,-6.932 33.404,-11.781 50.312,-10.594c16.908,1.187 35.501,9.731 51.137,17.717c15.521,7.927 28.566,19.976 42.681,30.199c16.307,11.811 36.239,30.4 55.163,40.668c18.173,9.86 39.594,21.945 58.385,20.938c18.79,-1.007 42.502,-18.321 54.358,-26.978" style="fill:none;stroke:#000;stroke-width:6.25px;"/><path d="M553.17,503.085c6.348,-13.059 19.045,-39.177 33.42,-55.163c15.569,-17.314 41.742,-45.634 59.995,-48.721c18.254,-3.087 36.102,16.283 49.526,30.199c13.824,14.331 24.025,42.504 33.42,55.79c6.381,9.023 15.105,19.239 22.951,23.926c7.007,4.186 18.418,4.193 24.123,4.197" style="fill:none;stroke:#000;stroke-width:6.25px;"/><path d="M135.216,439.063c2.55,19.73 -6.04,54.761 -14.496,83.752" style="fill:none;stroke:#000;stroke-width:6.25px;"/><path d="M154.141,563.886c0.964,-10.024 2.893,-30.071 4.429,-45.097c1.544,-15.099 3.538,-30.303 4.832,-45.5c1.342,-15.771 1.907,-33.198 3.221,-49.124c1.28,-15.502 3.538,-36.122 4.667,-46.431" style="fill:none;stroke:#000;stroke-width:6.25px;"/><path d="M203.265,319.878c-0.828,13.399 -2.483,40.198 -3.624,56.371c-0.957,13.565 -2.108,27.115 -3.221,40.668c-1.141,13.892 -2.886,28.578 -3.624,42.681c-0.731,13.962 -0.147,27.971 -0.805,41.936c-0.671,14.227 -1.232,29.048 -3.221,43.426c-2.06,14.888 -6.778,35.564 -9.137,45.902" style="fill:none;stroke:#000;stroke-width:6.25px;"/><path d="M152.357,561.519c8.301,-3.928 24.902,-11.785 36.412,-16.558c10.72,-4.445 21.711,-8.689 32.651,-12.08c10.827,-3.356 21.729,-6.934 32.985,-8.265c11.648,-1.377 25.151,-0.344 36.902,0c11.218,0.328 22.712,1.89 33.604,2.062c10.587,0.167 21.168,-0.627 31.748,-1.031c10.797,-0.412 24.959,-0.996 33.033,-1.443c5.147,-0.285 11.992,-0.92 15.414,-1.237" style="fill:none;stroke:#000;stroke-width:6.25px;"/><path d="M135.452,539.666c5.327,-4.167 15.981,-12.501 24.121,-18.554c9.333,-6.941 20.778,-16.355 31.876,-23.09c11.055,-6.708 23.67,-12.658 34.713,-17.317c10.223,-4.313 20.959,-7.717 31.542,-10.637c10.503,-2.899 21.071,-6.357 31.955,-6.886c10.892,-0.529 22.493,1.149 33.398,3.711c11.407,2.68 23.789,7.2 35.047,12.369c11.373,5.223 23.33,13.194 33.191,18.967c8.727,5.108 21.352,14.213 25.976,15.668" style="fill:none;stroke:#000;stroke-width:6.25px;"/><path d="M123.495,526.472c9.218,-12.198 27.655,-36.593 39.303,-49.272c9.171,-9.982 20.063,-18.254 30.584,-26.801c10.87,-8.83 23.262,-19.482 34.635,-26.182c10.457,-6.161 22.261,-9.701 33.604,-14.019c11.373,-4.329 23.846,-9.037 34.635,-11.957c9.849,-2.666 19.925,-6.339 30.099,-5.566c10.411,0.79 23.573,3.175 32.367,10.308c11.098,9.002 23.354,28.731 34.222,43.706c12.369,17.042 28.484,44.805 39.995,58.549" style="fill:none;stroke:#000;stroke-width:6.25px;"/><path d="M106.951,509.67c7.115,-8.739 21.346,-26.216 31.439,-38.397c9.632,-11.625 19.194,-23.314 29.12,-34.688c10.007,-11.468 20.015,-24.007 30.924,-34.117c10.648,-9.868 23.708,-20.229 34.532,-26.543c9.344,-5.451 20.12,-7.995 30.408,-11.339c10.308,-3.35 20.831,-6.351 31.439,-8.762c11.339,-2.577 25.383,-5.884 36.593,-6.7c10.213,-0.743 21.778,-3.28 30.666,1.804c10.437,5.97 23.827,20.751 31.955,34.016c9.921,16.192 21.088,43.164 27.574,63.136c5.952,18.33 9.543,43.906 11.339,56.694" style="fill:none;stroke:#000;stroke-width:6.25px;"/><path d="M135.452,444.73c7.645,-9.864 22.935,-29.592 33.861,-43.036c10.343,-12.725 21.063,-25.141 31.697,-37.624c10.866,-12.756 22.463,-29.249 33.501,-38.912c9.5,-8.317 22.162,-17.051 32.728,-19.07c10.296,-1.967 20.529,4.292 30.666,6.958c10.78,2.835 25.114,8.59 34.016,10.05c6.394,1.049 15.062,-0.509 19.396,-1.288" style="fill:none;stroke:#000;stroke-width:6.25px;"/><path d="M214.539,608.58c1.25,-7.495 3.749,-22.486 4.832,-33.823c1.275,-13.355 1.911,-30.868 2.819,-46.305c0.94,-15.972 1.818,-33.021 2.819,-49.526c1.074,-17.717 2.55,-39.661 3.624,-56.774c0.96,-15.3 2.114,-30.589 2.819,-45.902c0.738,-16.039 0.7,-33.571 1.611,-50.332c1.007,-18.522 -0.336,-47.11 4.429,-60.801" style="fill:none;stroke:#000;stroke-width:6.25px;"/><path d="M267.689,236.529c0.072,6.354 0.215,19.061 0,28.588c-0.268,11.878 -0.956,28.459 -1.611,42.681c-0.738,16.039 -2.013,35.769 -2.819,53.553c-0.802,17.711 -1.095,35.445 -2.013,53.15c-0.94,18.119 -2.483,37.245 -3.624,55.566c-1.128,18.116 -2.349,36.843 -3.221,54.358c-0.842,16.904 -0.671,36.164 -2.013,50.734c-1.137,12.342 -2.758,28.809 -6.04,36.688" style="fill:none;stroke:#000;stroke-width:6.25px;"/><path d="M282.99,603.346c1.083,-8.759 3.249,-26.277 4.429,-39.46c1.208,-13.489 2.426,-27.622 2.819,-41.473c0.47,-16.576 -0.755,-38.669 0,-57.982c0.805,-20.602 3.959,-47.245 4.832,-65.632c0.706,-14.882 -0.134,-31.541 0.403,-44.694c0.467,-11.438 1.889,-22.816 2.819,-34.225c1.208,-14.831 0.47,-41.451 4.429,-54.761" style="fill:none;stroke:#000;stroke-width:6.25px;"/><path d="M330.503,304.175c0.331,9.578 0.992,28.734 0.403,43.084c-0.604,14.697 -3.073,30.035 -4.027,45.097c-1.275,20.133 -3.02,53.486 -3.624,75.699c-0.522,19.186 0.403,42.01 0,57.579c-0.31,11.968 -1.342,25.568 -2.416,35.836c-0.904,8.647 -1.663,17.403 -4.027,25.77c-4.497,15.922 -1.342,36.353 0.236,46.569" style="fill:none;stroke:#000;stroke-width:6.25px;"/><path d="M359.897,323.905c0.575,7.333 1.724,21.999 1.611,33.018c-0.134,13.086 -1.968,30.318 -2.416,45.5c-0.604,20.468 -1.074,57.042 -1.208,77.309c-0.098,14.764 0.671,31.541 0.403,44.292c-0.226,10.756 -1.418,25.06 -2.013,32.212" style="fill:none;stroke:#000;stroke-width:6.25px;"/><path d="M388.888,533.284c0.76,-8.286 2.28,-24.857 2.819,-37.322c0.671,-15.536 0.953,-37.259 1.208,-55.893c0.268,-19.617 0.7,-45.399 0.403,-61.807c-0.222,-12.233 1.69,-28.008 -2.185,-36.641" style="fill:none;stroke:#000;stroke-width:6.25px;"/><path d="M342.985,642.403c1.387,-9.015 4.161,-27.045 5.234,-37.849c0.89,-8.957 -0.134,-18.925 1.208,-26.978c1.228,-7.369 4.973,-16.683 6.845,-21.341" style="fill:none;stroke:#000;stroke-width:6.25px;"/><path d="M388.888,533.284c-0.311,5.104 -0.933,15.312 -1.611,22.951c-0.738,8.321 -2.282,18.455 -2.819,26.978c-0.506,8.038 0.394,16.144 -0.403,24.159c-1.074,10.805 -4.384,30.713 -6.04,40.668" style="fill:none;stroke:#000;stroke-width:6.25px;"/><path d="M423.918,511.541c-0.977,5.616 -2.931,16.848 -3.221,25.367c-0.336,9.865 1.087,22.542 1.208,33.823c0.134,12.49 0,27.427 -0.403,41.117c-0.403,13.685 -1.476,31.911 -2.013,41.024" style="fill:none;stroke:#000;stroke-width:6.25px;"/><path d="M454.923,493.824c1.031,6.422 3.093,19.267 3.624,28.991c0.604,11.073 0.067,26.139 0,37.447c-0.06,10.134 -0.459,20.266 -0.403,30.4c0.067,12.012 0.872,30.367 0.805,41.675c-0.052,8.733 -0.823,20.359 -1.208,26.172" style="fill:none;stroke:#000;stroke-width:6.25px;"/><path d="M497.604,485.189c-0.363,8.986 -1.089,26.957 -1.208,40.444c-0.134,15.163 0.067,35.635 0.403,50.533c0.292,12.96 1.294,25.897 1.611,38.856c0.336,13.724 0.38,33.566 0.403,43.487" style="fill:none;stroke:#000;stroke-width:6.25px;"/><path d="M531.024,493.824c0.425,9.06 1.275,27.179 2.416,39.46c1.064,11.454 3.557,23.421 4.429,34.225c0.821,10.171 0.55,20.401 0.805,30.602c0.336,13.422 0.537,38.453 1.208,49.929c0.372,6.367 2.003,14.739 2.819,18.925" style="fill:none;stroke:#000;stroke-width:6.25px;"/><path d="M566.458,511.541c2.684,8.326 8.053,24.979 9.664,35.031c1.333,8.32 -0.225,16.855 0,25.278c0.336,12.549 0.872,34.77 2.013,50.018c1.038,13.879 3.567,32.275 4.832,41.473" style="fill:none;stroke:#000;stroke-width:6.25px;"/><path d="M607.528,540.935c1.946,8.299 5.838,24.897 7.248,35.232c1.207,8.853 0.638,17.86 1.208,26.776c0.671,10.503 1.007,25.568 2.819,36.239c1.614,9.506 5.907,21.691 8.053,27.783" style="fill:none;stroke:#000;stroke-width:6.25px;"/><path d="M667.121,666.965c-2.573,-10.48 -7.718,-31.44 -11.677,-44.694c-3.517,-11.774 -8.904,-25.258 -12.08,-34.829c-2.482,-7.483 -5.475,-17.561 -6.971,-22.6" style="fill:none;stroke:#000;stroke-width:6.25px;"/><path d="M706.964,660.702c-3.261,-11.548 -9.782,-34.644 -13.268,-46.283c-2.369,-7.908 -5.89,-18.34 -7.65,-23.555" style="fill:none;stroke:#000;stroke-width:6.25px;"/><path d="M734.364,587.441c2.684,7.315 5.369,14.63 8.053,21.945" style="fill:none;stroke:#000;stroke-width:6.25px;"/><path d="M172.26,583.213c11.207,-1.409 33.622,-4.228 47.513,-6.04c11.952,-1.559 24.36,-2.819 35.836,-4.832c11.098,-1.947 21.984,-4.963 33.018,-7.248c11.341,-2.349 23.689,-4.027 35.031,-6.845c11.166,-2.775 22.277,-5.94 33.018,-10.066c11.006,-4.228 25.68,-11.61 33.018,-15.301" style="fill:none;stroke:#000;stroke-width:6.25px;"/><path d="M417.27,442.153c5.223,-1.856 10.445,-3.712 15.668,-5.569" style="fill:none;stroke:#000;stroke-width:6.25px;"/><path d="M104.052,504.001c-0.77,5.816 -2.309,17.448 -3.865,25.126c-1.434,7.07 -4.129,16.315 -5.476,20.938" style="fill:none;stroke:#000;stroke-width:6.25px;"/><path d="M135.452,539.434c0.995,4.474 2.985,13.422 2.744,19.649c-0.234,6.064 -2.833,11.802 -4.188,17.717c-1.611,7.033 -4.256,17.596 -5.476,24.481c-0.984,5.556 -1.556,13.071 -1.843,16.828" style="fill:none;stroke:#000;stroke-width:6.25px;"/><path d="M87.623,524.294c14.299,13.654 42.896,40.963 55.727,52.828c6.875,6.357 13.622,14.662 21.26,18.361c7.459,3.613 18.864,3.761 24.566,3.836" style="fill:none;stroke:#000;stroke-width:6.25px;"/><path d="M156.352,589.685c4.507,4.009 13.52,12.026 17.922,30.279" style="fill:none;stroke:#000;stroke-width:6.25px;"/><path d="M218.786,292.685c10.896,-12.119 32.689,-36.356 49.401,-36.958c16.713,-0.602 39.487,22.031 50.875,33.347" style="fill:none;stroke:#000;stroke-width:6.25px;"/><path d="M580.148,453.75c2.136,5.192 6.408,15.576 7.087,23.837c0.966,11.757 -0.537,35.058 -1.288,46.708" style="fill:none;stroke:#000;stroke-width:6.25px;"/><path d="M622.668,554.252c0.101,-8.663 0.303,-25.988 0,-38.977c-0.322,-13.798 -1.02,-29.796 -1.933,-43.809c-0.876,-13.445 -3.006,-31.085 -3.543,-40.265c-0.288,-4.932 0.119,-11.522 0.322,-14.818" style="fill:none;stroke:#000;stroke-width:6.25px;"/><path d="M649.727,398.345c0.1,4.941 0.301,14.822 0.644,22.226c0.483,10.415 1.457,26.846 2.255,40.265c0.859,14.442 2.094,31.997 2.899,46.386c0.745,13.309 2.544,24.897 1.933,39.943c-0.474,11.668 1.917,24.81 6.144,33.217" style="fill:none;stroke:#000;stroke-width:6.25px;"/><path d="M108.561,584.531c6.064,4.389 18.191,13.166 28.025,18.522c12.026,6.55 33.429,16.035 44.131,20.777" style="fill:none;stroke:#000;stroke-width:6.25px;"/><path d="M684.516,433.778c0.088,8.452 0.263,25.356 0.966,38.01c0.752,13.529 2.792,28.991 3.543,43.164c0.739,13.943 -0.376,28.776 0.966,41.876c1.271,12.402 1.283,28.937 7.087,36.722" style="fill:none;stroke:#000;stroke-width:6.25px;"/><path d="M700.292,434.273c4.315,10.314 12.945,30.941 15.792,42.67c2.18,8.983 0.731,18.475 1.288,27.703c0.591,9.771 1.397,20.624 2.255,30.924c0.859,10.308 0.046,22.53 2.899,30.924c2.584,7.601 10.341,15.492 14.22,19.438" style="fill:none;stroke:#000;stroke-width:6.25px;"/><path d="M756.671,571.968c-1.148,-5.798 -3.445,-17.393 -5.154,-26.092c-1.772,-9.019 -2.684,-19.166 -5.476,-28.025c-2.759,-8.755 -8.436,-19.669 -11.274,-25.126" style="fill:none;stroke:#000;stroke-width:6.25px;"/><path d="M553.17,500.779c6.584,-7.914 19.753,-23.742 30.521,-34.789c10.885,-11.167 23.622,-24.213 34.789,-32.212c9.72,-6.963 21.206,-15.784 32.212,-15.784c11.006,0 23.709,8.539 33.823,15.784c11.167,7.999 25.841,24.141 33.179,32.212" style="fill:none;stroke:#000;stroke-width:6.25px;"/><path d="M574.028,517.53c4.51,-5.727 13.529,-17.18 21.26,-24.803c7.731,-7.624 15.688,-15.481 25.126,-20.938c9.61,-5.557 21.851,-12.08 32.534,-12.402c10.684,-0.322 22.227,4.498 31.568,10.469c10.791,6.899 22.488,20.233 33.179,30.924c11.06,11.06 24.267,27.864 33.179,35.433c5.746,4.881 15.444,8.284 20.294,9.986" style="fill:none;stroke:#000;stroke-width:6.25px;"/><path d="M588.523,527.838c7.981,-2.389 23.944,-7.167 35.111,-9.986c10.547,-2.662 21.153,-6.068 31.89,-6.926c10.737,-0.857 22.456,-2.265 32.534,1.783c10.362,4.161 20.227,14.889 29.635,23.182c12.241,10.79 33.286,29.687 43.809,33.501" style="fill:none;stroke:#000;stroke-width:6.25px;"/><path d="M607.528,542.813c12.124,2.086 36.373,6.258 50.251,8.862c11.042,2.072 22.643,2.454 33.018,6.765c12.782,5.311 32.471,11.251 43.673,25.102" style="fill:none;stroke:#000;stroke-width:6.25px;"/><path d="M287.973,622.824c0,0 14.128,-11.07 21.657,-15.93c10.141,-6.547 26.412,-15.104 39.187,-23.352c12.994,-8.388 26.728,-19.261 38.774,-26.979c10.855,-6.955 22.141,-13.231 33.501,-19.327c11.704,-6.281 24.052,-14.442 36.722,-18.361c12.622,-3.904 26.575,-6.228 39.299,-5.154c12.724,1.074 24.469,8.551 37.044,11.596c12.819,3.105 30.851,6.548 39.871,7.031c4.937,0.264 11.143,-2.666 14.246,-4.132" style="fill:none;stroke:#000;stroke-width:6.25px;"/><path d="M293.416,625.628c0,0 11.143,-3.432 16.544,-5.607c9.254,-3.726 26.629,-10.737 38.977,-16.75c12.011,-5.849 23.483,-12.75 35.111,-19.327c12.187,-6.894 25.501,-16.291 38.01,-22.035c11.836,-5.436 24.75,-9.823 37.044,-12.432c12.02,-2.551 24.45,-2.6 36.722,-3.221c12.724,-0.644 27.112,1.674 39.621,-0.644c12.4,-2.298 22.28,-11.218 35.433,-13.263" style="fill:none;stroke:#000;stroke-width:6.25px;"/><path d="M314.792,632.583c7.045,-2.904 21.134,-8.711 31.89,-12.563c11.543,-4.134 24.865,-8.301 37.366,-12.241c12.778,-4.027 26.897,-8.107 39.299,-11.919c11.719,-3.602 23.453,-7.159 35.111,-10.952c12.241,-3.982 26.312,-6.828 38.333,-12.941c12.563,-6.389 28.884,-19.057 37.044,-25.392" style="fill:none;stroke:#000;stroke-width:6.25px;"/><path d="M341.206,641.925c9.52,-3.042 28.561,-9.127 41.876,-12.241c12.513,-2.926 25.397,-3.983 38.01,-6.442c12.939,-2.523 27.257,-3.223 39.621,-8.697c12.67,-5.61 25.624,-14.948 36.4,-24.964c12.187,-11.328 28.544,-32.445 36.722,-43.003" style="fill:none;stroke:#000;stroke-width:6.25px;"/><path d="M263.234,607.651c0,0 18.099,13.611 28.455,17.88c13.248,5.461 36.497,11.722 51.031,14.884c11.857,2.58 24.061,3.353 36.174,4.088c13.008,0.789 28.4,1.074 41.876,0.644c13.03,-0.415 26.574,0.793 38.977,-3.221c12.939,-4.188 26.344,-13.672 38.655,-21.904c13.046,-8.724 26.682,-22.387 39.621,-30.441c11.887,-7.399 25.34,-18.656 38.01,-17.878c12.67,0.778 25.46,14.833 38.01,22.549c13.1,8.053 27.327,22.28 40.587,25.77c12.661,3.332 26.886,0.188 38.977,-4.832c13.686,-5.682 33.321,-21.399 43.138,-29.258" style="fill:none;stroke:#000;stroke-width:6.25px;"/><path d="M419.064,645.279c8.796,1.896 26.387,5.687 39.717,6.631c13.33,0.944 27.202,2.132 40.265,-0.966c13.583,-3.221 28.025,-14.71 41.232,-18.361c12.265,-3.39 25.285,-3.543 38.01,-3.543c12.939,0 26.525,1.465 39.621,3.543c13.529,2.147 27.823,10.737 41.554,9.342c13.731,-1.396 27.57,-11.061 40.829,-17.717c13.583,-6.818 32.44,-18.844 40.668,-23.193c2.702,-1.428 6.699,-2.409 8.697,-2.899" style="fill:none;stroke:#000;stroke-width:6.25px;"/><path d="M479.945,652.861c25.263,1.222 75.79,3.667 102.113,4.948c18.608,0.906 37.674,4.367 55.823,2.74c18.102,-1.623 38.042,-7.198 53.07,-12.503c13.148,-4.642 29.115,-14.432 37.098,-19.327" style="fill:none;stroke:#000;stroke-width:6.25px;"/><path d="M130.892,625.488c4.805,1.491 14.416,4.472 21.647,3.552c7.23,-0.921 16.9,-6.357 21.735,-9.075" style="fill:none;stroke:#000;stroke-width:6.25px;"/><path d="M664.202,622.229c-11.519,-14.69 -34.557,-44.07 -49.22,-59.013c-11.536,-11.755 -26.84,-25.804 -38.76,-30.641" style="fill:none;stroke:#000;stroke-width:6.25px;"/><path d="M314.691,603.198c-13.715,7.286 -21.964,15.858 -34.799,15.668" style="fill:none;stroke:#000;stroke-width:6.25px;"/></g><path d="M784.883,431.866c0,-194.835 -158.181,-353.017 -353.017,-353.017c-194.835,0 -353.017,158.181 -353.017,353.017c0,194.835 158.181,353.017 353.017,353.017c194.835,0 353.017,-158.181 353.017,-353.017Z" style="fill:none;stroke:#fff;stroke-width:15.69px;stroke-linejoin:miter;stroke-miterlimit:10;"/></g><g id="Star"><path d="M406.892,278.222c93.914,0 124.956,-31.06 124.956,-124.974c0,93.914 31.348,124.974 124.956,124.974c-93.609,0 -124.956,31.366 -124.956,124.974c0,-93.914 -31.042,-124.974 -124.956,-124.974Z"/><path d="M406.892,278.222c93.914,0 124.956,-31.06 124.956,-124.974c0,93.914 31.348,124.974 124.956,124.974c-93.609,0 -124.956,31.366 -124.956,124.974c0,-93.914 -31.042,-124.974 -124.956,-124.974Zm59.461,-0c17.969,4.695 31.973,12.166 42.655,22.851c10.707,10.71 18.186,24.758 22.877,42.789c4.717,-17.952 12.216,-31.969 22.919,-42.675c10.718,-10.72 24.756,-18.227 42.742,-22.945c-17.984,-4.693 -32.021,-12.168 -42.737,-22.866c-10.717,-10.698 -18.222,-24.728 -22.939,-42.731c-4.692,18.002 -12.165,32.03 -22.86,42.727c-10.682,10.685 -24.687,18.156 -42.655,22.851Z"/><path d="M406.892,251.679c93.914,0 124.956,-31.06 124.956,-124.974c0,93.914 31.348,124.974 124.956,124.974c-93.609,0 -124.956,31.366 -124.956,124.974c0,-93.914 -31.042,-124.974 -124.956,-124.974Z" style="fill:#fff;"/><path d="M406.892,251.679c93.914,0 124.956,-31.06 124.956,-124.974c0,93.914 31.348,124.974 124.956,124.974c-93.609,0 -124.956,31.366 -124.956,124.974c0,-93.914 -31.042,-124.974 -124.956,-124.974Zm59.461,-0c17.969,4.695 31.973,12.166 42.655,22.851c10.707,10.71 18.186,24.758 22.877,42.789c4.717,-17.952 12.216,-31.969 22.919,-42.675c10.718,-10.72 24.756,-18.227 42.742,-22.945c-17.984,-4.693 -32.021,-12.168 -42.737,-22.866c-10.717,-10.698 -18.222,-24.728 -22.939,-42.731c-4.692,18.002 -12.165,32.03 -22.86,42.727c-10.682,10.685 -24.687,18.156 -42.655,22.851Z"/></g><path d="M932.917,465.322l127.357,0c12.803,0 22.742,-2.506 29.818,-7.518c7.075,-5.012 10.613,-12.252 10.613,-21.72c0,-9.468 -3.538,-16.708 -10.613,-21.72c-7.075,-5.012 -17.015,-7.518 -29.818,-7.518l-145.551,0l58.625,-48.452l0,286.119l-130.39,0l0,-313.269l237.532,0c30.323,0 56.856,4.386 79.598,13.157c22.742,8.772 40.431,20.954 53.066,36.548c12.635,15.594 18.952,33.972 18.952,55.135c0,20.606 -6.317,38.776 -18.952,54.509c-12.635,15.733 -30.323,27.916 -53.066,36.548c-22.742,8.632 -49.275,12.948 -79.598,12.948l-147.573,0l0,-74.767Zm44.474,32.58l144.035,0l125.841,146.61l-149.089,0l-120.787,-146.61Z" style="fill:#fff;fill-rule:nonzero;"/><path d="M1623.78,450.703l0,74.349l-285.543,0l0,-74.349l285.543,0Zm-196.09,37.175l-23.248,116.536l-49.528,-45.111l287.565,0l0,85.209l-366.91,0l27.796,-156.634l-27.796,-156.634l364.383,0l0,85.209l-285.038,0l49.528,-45.111l23.248,116.536Z" style="fill:#fff;fill-rule:nonzero;"/><path d="M1780.161,591.883l0,-85.627l258.252,0l0,85.627l-258.252,0Zm218.327,-260.64l166.272,313.269l-138.981,0l-130.895,-265.652l33.355,0l-130.895,265.652l-138.981,0l166.272,-313.269l173.853,0Z" style="fill:#fff;fill-rule:nonzero;"/><path d="M2609.579,508.762c-4.043,28.681 -15.92,53.743 -35.63,75.185c-19.71,21.442 -45.737,38.149 -78.082,50.123c-32.345,11.974 -69.406,17.961 -111.185,17.961c-45.148,0 -84.568,-6.822 -118.26,-20.467c-33.692,-13.645 -59.888,-32.789 -78.588,-57.433c-18.699,-24.644 -28.049,-53.395 -28.049,-86.253c0,-32.858 9.35,-61.61 28.049,-86.253c18.699,-24.644 44.895,-43.788 78.588,-57.433c33.692,-13.645 73.113,-20.467 118.26,-20.467c41.779,-0 78.84,5.987 111.185,17.961c32.345,11.974 58.372,28.681 78.082,50.123c19.71,21.442 31.587,46.503 35.63,75.185l-130.895,0c-3.032,-10.86 -8.592,-20.119 -16.678,-27.776c-8.086,-7.658 -18.615,-13.505 -31.587,-17.543c-12.972,-4.038 -28.217,-6.057 -45.737,-6.057c-19.542,0 -36.304,2.854 -50.286,8.563c-13.982,5.708 -24.68,13.993 -32.092,24.853c-7.412,10.86 -11.118,23.808 -11.118,38.845c0,15.037 3.706,27.916 11.118,38.636c7.412,10.721 18.11,19.005 32.092,24.853c13.982,5.848 30.744,8.772 50.286,8.772c17.52,0 32.766,-1.88 45.737,-5.639c12.972,-3.759 23.5,-9.468 31.587,-17.125c8.086,-7.658 13.645,-17.195 16.678,-28.612l130.895,0Z" style="fill:#fff;fill-rule:nonzero;"/><rect x="2653.547" y="331.243" width="130.39" height="313.269" style="fill:#fff;fill-rule:nonzero;"/><path d="M3182.687,450.703l0,74.349l-285.543,0l0,-74.349l285.543,0Zm-196.09,37.175l-23.248,116.536l-49.528,-45.111l287.565,0l0,85.209l-366.91,0l27.796,-156.634l-27.796,-156.634l364.383,0l0,85.209l-285.038,0l49.528,-45.111l23.248,116.536Z" style="fill:#fff;fill-rule:nonzero;"/><path d="M3606.2,565.986l-35.377,7.101l0,-241.843l126.347,0l0,313.269l-163.24,0l-188.004,-241.426l35.377,-7.101l0,248.527l-126.347,0l0,-313.269l168.294,0l182.95,234.743Z" style="fill:#fff;fill-rule:nonzero;"/></svg>